<?xml version="1.0" encoding="UTF-8" standalone="no"?>
<!DOCTYPE svg PUBLIC "-//W3C//DTD SVG 1.1//EN" "http://www.w3.org/Graphics/SVG/1.1/DTD/svg11.dtd">
<svg width="100%" height="100%" viewBox="0 0 863 404" version="1.1" xmlns="http://www.w3.org/2000/svg" xmlns:xlink="http://www.w3.org/1999/xlink" xml:space="preserve" xmlns:serif="http://www.serif.com/" style="fill-rule:evenodd;clip-rule:evenodd;stroke-linejoin:round;stroke-miterlimit:2;">
    <g id="Doctolib" transform="matrix(1,0,0,1,0,-229.962)">
        <rect x="0" y="229.962" width="863" height="403.957" style="fill:none;"/>
        <clipPath id="_clip1">
            <rect x="0" y="229.962" width="863" height="403.957"/>
        </clipPath>
        <g clip-path="url(#_clip1)">
            <g transform="matrix(7.37073,0,0,1.90005,-5916.25,229.962)">
                <rect x="802.669" y="0" width="117.085" height="212.603" style="fill:rgb(0,151,228);"/>
            </g>
            <g transform="matrix(0.873697,0,0,0.873697,54.5507,55.5169)">
                <path d="M441.1,474.3C435.7,482.7 420.1,448.8 407.5,467.2C405.2,470.5 395.9,499.6 415.7,508C438.5,517.8 453.6,493.7 462.6,443.3C463.1,440.8 462.8,470.7 464.1,469.8C465.4,468.9 466.7,468.8 468.1,469.4C469.5,470 470.6,471.2 471.3,472.9C472.1,474.6 472.3,477 472.1,479.9C471.5,483.1 470.5,487 469.1,491.5C467.7,496.1 451.7,524.8 421.3,524.5C390.3,524.3 374.5,490.9 373,485.7C371.5,480.5 370.7,475.5 370.8,470.6C370.9,465.7 371.6,461.2 373,457.1C374.4,453 376,450.2 377.8,448.4C379.6,446.7 388.3,431.2 420.3,439.5C451.1,447.7 443.3,471 441.1,474.3Z" style="fill:white;fill-rule:nonzero;"/>
            </g>
            <g transform="matrix(0.873697,0,0,0.873697,54.5507,55.5169)">
                <path d="M517.1,383C517.1,383 491.6,489.5 491,493.8C489.7,504.1 489.7,509.5 498,512.3C509.9,516.3 520.5,497 520.5,497C534.8,467.2 528.2,464.8 551.9,465.7C555.2,465.8 544.9,478.3 544.6,481.2C544.3,482.7 543.5,485.8 542,490.6C540.5,495.4 538.3,500.3 535.4,505.4C532.5,510.4 528.9,514.9 524.8,518.9C520.6,522.8 516.1,524.8 511.2,524.8C501.1,524.8 492.7,522 486,516.5C479.3,511 473.8,504.1 469.6,495.8C465.4,487.5 461.3,478.2 460.9,469.2C459.6,436.7 478.8,366.7 480.8,364.5C482.8,362.3 485.3,361.2 488.5,361.2C491.4,361.2 495.2,363.1 500.3,364.7C522,371.5 517.1,383 517.1,383ZM749.9,477.2C751.8,472.8 754.6,471.4 758.2,473.1C761.8,474.8 763.2,478.4 762.4,483.8C761.9,487.5 761,491.4 759.5,495.4C758,499.5 750.7,522.9 728.9,522.9C709.1,522.9 696.7,497.1 694.3,492.6C692,488.4 690.1,483.8 688.5,478.7C687,473.7 686,469.1 685.7,464.9C685.3,460.7 685.5,457.3 686.2,454.6C686.8,451.9 688.2,450.7 690.4,450.9C692.4,451.4 694.7,452.1 697.3,452.9C699.9,453.8 702.3,454.7 704.6,455.8C707,456.9 709.1,458.2 711.1,459.7C713.1,461.2 714.6,462.9 715.7,464.9C716.8,466.9 717.6,469.8 718.2,473.6C718.8,477.4 719.4,481.3 720.1,485.2C720.8,489.1 721.4,492.7 722.1,495.9C722.8,499.1 723.8,501.1 725.3,501.8C726.4,502.3 727.9,502 730,500.9C732.1,499.8 734.3,498.1 736.6,495.9C738.9,493.7 741.3,491 743.7,487.8C746,484.7 748.1,481.2 749.9,477.2Z" style="fill:white;fill-rule:nonzero;"/>
            </g>
            <g transform="matrix(0.873697,0,0,0.873697,54.5507,55.5169)">
                <path d="M443.9,409C458.3,407.9 472.3,406.7 486,405.1C499.7,403.6 489.5,404.3 500.5,402.9C511.5,401.5 520.7,400.3 527.9,399.2C535.2,398.2 539.7,397.6 541.4,397.6C544.6,397.5 548.4,398 552.5,399.2C556.7,400.4 560.6,401.8 564.2,403.6C567.8,405.3 570.8,407.2 573.1,409.2C575.4,411.2 576.1,413.1 575.3,414.9C574.7,415.9 571.2,416.6 564.5,417C557.9,417.4 549.1,417.7 538.1,418C527.1,418.3 514.4,418.6 500,418.9C485.6,419.2 524.2,415.5 476.8,417.9C429.3,420.4 443.9,409 443.9,409ZM315,441.9C318.8,441.9 322.4,442.8 325.8,444.7C329.2,446.6 331.5,449.2 332.5,452.4C339.8,454 345.4,457.4 349.2,462.5C353,467.6 355.2,473.5 355.8,480C362.7,480.8 375.9,473.2 375.9,458.2C375.9,455 379.6,467.9 378.3,477.1C378,479.5 371.4,497.7 352.2,499.8C348.8,500.2 347.2,503.5 345.7,507.2C344.6,509.8 335.3,524.2 312.3,524.2C298.2,524.2 288.2,511.4 284.5,506.8C280.8,502.2 278.8,497.1 278.7,491.4C278.3,486 279,480.4 280.6,474.5C282.2,468.7 284.6,463.3 287.7,458.5C290.8,453.6 294.7,449.7 299.3,446.5C303.7,443.5 309,441.9 315,441.9ZM306.1,510.1C308.6,513.3 312.8,513.3 318.6,510.1C324.4,506.9 329.7,502 334.5,495.2C329.6,492 325.2,487.8 321.1,482.4C317,477.1 313.8,470.8 311.5,463.7C306.3,472.8 303,481.8 301.7,490.8C300.5,499.7 301.9,506.2 306.1,510.1ZM566.2,441.9C570,441.9 573.6,442.8 577,444.7C580.4,446.6 582.7,449.2 583.7,452.4C591,454 596.5,457.4 600.4,462.5C604.2,467.6 606.4,473.5 607,480C613.9,480.8 627.1,473.2 627.1,458.2C627.1,455 630.8,467.9 629.5,477.1C629.2,479.5 622.6,497.7 603.4,499.8C600,500.2 598.4,503.5 596.9,507.2C595.8,509.8 586.5,524.2 563.5,524.2C549.4,524.2 539.4,511.4 535.7,506.8C532,502.2 530,497.1 529.9,491.4C529.6,486 530.2,480.4 531.8,474.5C533.4,468.7 535.8,463.3 538.9,458.5C542,453.6 545.9,449.7 550.5,446.5C555,443.5 560.2,441.9 566.2,441.9ZM557.3,510.1C559.8,513.3 564,513.3 569.8,510.1C575.6,506.9 580.9,502 585.7,495.2C580.8,492 576.3,487.8 572.3,482.4C568.2,477.1 565,470.8 562.7,463.7C557.5,472.8 554.2,481.8 552.9,490.8C551.7,499.7 553.1,506.2 557.3,510.1Z" style="fill:white;fill-rule:nonzero;"/>
            </g>
            <g transform="matrix(0.873697,0,0,0.873697,54.5507,55.5169)">
                <path d="M697.7,473.5C695.5,472 685.5,449.4 686.2,454.7C687.4,463.4 666,511.8 649.8,503.5C633,494.9 639.4,467.9 640.3,466.5C644.6,459.6 673.2,425.1 685,356.4C686.2,349.6 688.9,323.2 661.5,318.7C632.2,313.9 625.5,328.7 622.6,335.1C611.1,361.1 615,453.5 624.9,492.2C627.1,500.9 638.7,523 654.2,523C679.1,523 691.8,497.7 693.7,493.6C695.6,489.5 697.4,485.5 698.9,481.6C700.4,477.7 699.9,475 697.7,473.5ZM644.1,389.1C644.5,381.9 644.9,374.8 645.3,367.8C645.7,360.9 646.5,354.7 647.6,349.2C648.7,343.7 650.1,339.4 652,336.2C653.8,333 656.1,331.5 658.6,331.6C662.6,331.9 665.3,334.7 666.7,339.8C668.1,344.9 668.5,351.3 668.1,358.9C667.7,366.5 666.4,374.9 664.4,384.1C662.4,393.3 660.3,402.1 658.1,410.6C654.8,423.2 647.3,438.7 645.7,441.6C644.6,415.8 643.7,402.8 644.1,389.1ZM856.2,473.9C855.2,473.6 854.1,473.8 853.1,474.5C852.1,475.1 851.1,475.9 850.3,476.9C848.4,480.4 846,482.5 842.9,483.4C839.8,484.3 835.9,484.1 831.1,482.8C831.1,479.9 830.5,476.9 829.5,473.9C828.5,470.9 826.9,468.4 824.6,466.1C822.3,463.4 819.1,461.4 814.9,460.2C810.8,459 807.3,458.4 804.6,458.4C801.8,458.7 799.5,459.5 797.7,461C795.9,462.5 794.7,464.3 794.2,466.5C793.7,468.7 793.9,471.2 794.7,473.9C795.5,476.6 797.1,479.3 799.4,482C799.2,484.2 798.8,486.9 798.2,490.1C797.6,493.3 796.8,496.3 795.7,499C794.6,501.7 793.3,503.9 791.9,505.6C790.5,507.3 788.7,507.6 786.7,506.3C784.6,505.1 783.1,502.9 782,499.8C780.9,496.7 780.1,493.5 779.5,490C778.8,486.1 778.5,481.9 778.4,477.4C783,470.8 787.6,463.1 792.1,454.5C796.6,445.9 800.7,436.8 804.4,427.4C808.1,417.9 811.3,408.4 814.1,399C816.9,389.5 819,380.6 820.5,372.2C822,363.8 822.5,356.3 822.1,349.5C821.7,342.7 820.2,337.4 817.5,333.4C815.2,330 811.6,326.9 806.9,324.4C802.1,321.8 797.2,319.8 792.1,318.5C787,317.2 782.3,316.3 777.9,316.1C773.5,315.9 770.2,316.2 768.2,317.2C762,319.9 756.9,325.6 753.1,334.4C749.3,343.1 746.6,353.4 744.8,365.1C743.1,376.8 742.1,389.3 742,402.6C741.8,415.9 742.3,428.5 743.3,440.3C744.3,452.1 745.8,462.5 747.5,471.3C749.3,480.2 751.2,486.2 753.4,489.4C756.2,493.6 774.6,523 800.2,523C824.1,523 831.5,494.2 825.8,493.3C847,496.4 857.2,474.2 856.2,473.9ZM775.2,390.4C775.6,383.2 776,376.1 776.5,369.1C777,362.2 777.8,356 779,350.5C780.2,345 781.8,340.7 783.9,337.5C786,334.3 788.4,332.8 791.3,332.9C795.8,333.2 798.8,336 800.4,341.1C801.9,346.2 802.4,352.6 801.9,360.2C801.4,367.8 800,376.2 797.8,385.4C795.5,394.5 793.2,403.4 790.8,411.9C788.4,420.4 785.7,428 782.8,434.7C779.9,441.4 777.5,446.3 775.7,449.1C774.8,427.2 774.6,407.6 775.2,390.4ZM813.5,475.8C812.7,475.1 811.9,474.4 811.2,473.7C810.4,473 809.8,472.3 809.3,471.7C808.8,471.1 808.4,470.5 808.3,470C808.1,469.5 808.2,469.1 808.5,468.8C809,468.3 809.6,468.3 810.3,468.6C811,468.9 811.8,469.4 812.7,470.2C813.5,470.9 814.4,471.9 815.2,473C816,474.1 816.8,475.2 817.6,476.2C818.4,477.2 819,478.2 819.5,479.2C820,480.1 820.3,480.8 820.5,481.3C817.7,479.3 815.4,477.5 813.5,475.8Z" style="fill:white;fill-rule:nonzero;"/>
            </g>
            <g transform="matrix(0.873697,0,0,0.873697,54.5507,55.5169)">
                <path d="M716.5,411.9C716.5,420.1 710.1,426.7 702.2,426.7C694.3,426.7 687.9,420.1 687.9,411.9C687.9,403.7 694.3,397.1 702.2,397.1C710.1,397.1 716.5,403.7 716.5,411.9ZM41.1,432.5C41.1,432.5 40.8,433.1 40.3,434.3C39.7,435.5 39.1,437.1 38.3,439.3C36.6,443.6 34.5,449.9 33.5,457.4C33,461.2 32.8,465.3 33,469.7C33.1,471.9 33.3,474.2 33.6,476.5C33.8,477.7 33.9,478.7 34.1,479.2C34.3,480 34.6,480.9 34.9,481.8C37.4,488.9 44.9,497.5 55.3,505.2C65.8,512.8 78.7,519.9 93,526.8C107.4,533.5 123.6,540.1 141.5,542.7C150.4,543.9 159.6,544.2 168.8,542.9C173.4,542.3 177.9,541.3 182.4,539.9C186.9,538.6 191.2,536.9 195.4,534.8C203.8,530.7 211.4,525 217.6,518.2C223.8,511.4 228.7,503.5 232.3,495.2C234.1,491 235.6,486.8 236.9,482.4C238.2,478 239.1,473.8 240.3,468.8L241.2,465.2L241.9,461.8C242.4,459.5 243,457.3 243.4,455C243.8,452.7 244.4,450.4 244.8,448.1C245.2,445.8 245.6,443.5 246,441.3C249.2,423.2 249.8,405.3 246.8,390.3C245.3,382.8 243,376.1 239.9,370.2C238.3,367.3 236.5,364.6 234.6,362C232.6,359.5 230.4,357.1 228,355C218.4,346.3 205.5,340.5 192.6,336.8C179.6,333.1 166.7,331.1 155,330C143.3,328.8 132.9,328.4 124.2,328.1C115.5,327.9 108.6,327.8 103.9,327.9C99.2,327.9 96.7,328 96.7,328L94.9,328L94.2,325.4L95.8,324.6C95.8,324.6 98.1,323.4 102.6,321.5C107.1,319.7 113.7,317.1 122.4,314.5C131.1,311.9 141.8,309.3 154.5,307.6C167.2,305.9 181.9,305 198.4,307C206.6,308 215.3,309.8 224.2,312.9C226.4,313.6 228.7,314.6 230.9,315.5C233.1,316.5 235.4,317.5 237.6,318.7C242.1,321 246.5,323.9 250.8,327.1C255.1,330.4 259.1,334.2 262.8,338.4C266.4,342.7 269.7,347.4 272.5,352.4C275.2,357.4 277.5,362.7 279.1,368.1C280,370.8 280.6,373.5 281.3,376.3C281.9,379 282.3,381.8 282.7,384.5C284.2,395.5 283.9,406.5 282.7,417.1C281.5,427.7 279.3,438.1 276.5,448.2C275.8,450.7 275,453.2 274.3,455.7C273.5,458.2 272.7,460.7 271.8,463.1C271,465.6 270,468.1 269,470.5L267.5,474.2C267,475.4 266.5,476.5 266,477.7L262.8,484.8C261.6,487.3 260.4,489.8 259.1,492.2C256.5,497 253.5,501.7 250.2,506.2C243.6,515.1 235.7,522.9 227.1,529.4C218.5,535.9 209.2,541 199.6,545C197.2,546 194.8,546.9 192.4,547.7C190,548.6 187.5,549.4 185.1,550C180.2,551.4 175.3,552.6 170.3,553.6C160.4,555.5 150.6,556.8 140.7,557.5C121.1,558.8 101.4,557.8 83.4,553.1C65.4,548.5 49.1,540.3 36,529.5C29.3,524.2 23.5,518 18.6,511.3C13.8,504.5 9.9,496.8 8.4,488.4C8,486.3 7.7,484.2 7.6,482.1C7.5,479.7 7.5,477.8 7.8,476.2C8,474.5 8.2,472.9 8.6,471.3C8.9,469.7 9.2,468.1 9.7,466.6C11.3,460.6 13.6,455.3 16.3,450.9C21.6,442.1 27.6,437 31.8,434.1C32.8,433.3 33.8,432.7 34.7,432.2C35.5,431.7 36.2,431.3 36.8,431C38,430.4 38.5,430.1 38.5,430.1L40.1,429.3L41.7,430.8L41.1,432.5Z" style="fill:white;fill-rule:nonzero;"/>
            </g>
            <g transform="matrix(0.873697,0,0,0.873697,54.5507,55.5169)">
                <path d="M158.1,368.4C150.6,406.5 143.2,444.6 135.7,482.7C133.3,495.2 159.3,480.8 160.9,472.2C168.4,434.1 175.8,396 183.3,357.9C185.7,345.5 159.7,359.9 158.1,368.4Z" style="fill:white;fill-rule:nonzero;"/>
            </g>
        </g>
    </g>
</svg>