<svg width="120" height="120" viewBox="0 0 120 120" fill="none" xmlns="http://www.w3.org/2000/svg">
<path d="M70.067 10.1637C39.7117 -20.4991 -2.52163 22.7076 0.117953 79.8519C0.117954 130.028 101.742 131.421 116.26 93.7891C130.777 56.1575 100.422 40.8265 70.067 10.1637Z" fill="#D0E9FB"/>
<path d="M13.1808 39.7633C12.2554 35.4432 14.9736 30.9541 19.252 29.7367L73.4792 14.3067C77.7576 13.0893 81.9761 15.6046 82.9015 19.9247L98.8192 94.2367C99.7446 98.5568 97.0264 103.046 92.748 104.263L38.5208 119.693C34.2424 120.911 30.0239 118.395 29.0985 114.075L13.1808 39.7633Z" fill="#75DDFF"/>
<path d="M13.1808 39.7633C12.2554 35.4432 14.9736 30.9541 19.252 29.7367L73.4792 14.3067C77.7576 13.0893 81.9761 15.6046 82.9015 19.9247L98.8192 94.2367C99.7446 98.5568 97.0264 103.046 92.748 104.263L38.5208 119.693C34.2424 120.911 30.0239 118.395 29.0985 114.075L13.1808 39.7633Z" fill="url(#paint0_linear_1245_38296)" fill-opacity="0.3"/>
<path d="M36.0002 24.0779C36.0002 19.6291 39.451 15.2781 43.7387 14.3207L81.0002 6L106 22V89.3517C106 93.8248 102.513 98.1938 98.2015 99.1221L43.8519 110.825C39.5198 111.758 36.0001 108.864 36.0001 104.37L36.0002 24.0779Z" fill="#FFF9E5"/>
<path d="M36.0002 24.0779C36.0002 19.6291 39.451 15.2781 43.7387 14.3207L81.0002 6L106 22V89.3517C106 93.8248 102.513 98.1938 98.2015 99.1221L43.8519 110.825C39.5198 111.758 36.0001 108.864 36.0001 104.37L36.0002 24.0779Z" fill="url(#paint1_linear_1245_38296)" fill-opacity="0.3"/>
<path d="M52 78.1106C52 76.9875 52.8954 75.8877 54 75.6542L90 68.0439C91.1046 67.8104 92 68.5316 92 69.6546V71.6882C92 72.8113 91.1046 73.911 90 74.1445L54 81.7549C52.8954 81.9884 52 81.2672 52 80.1441V78.1106Z" fill="#FFCD4D"/>
<path d="M52 90.3118C52 89.1887 52.8954 88.089 54 87.8555L90 80.2451C91.1046 80.0116 92 80.7328 92 81.8559V83.8894C92 85.0125 91.1046 86.1123 90 86.3458L54 93.9561C52.8954 94.1896 52 93.4684 52 92.3454V90.3118Z" fill="#FFCD4D"/>
<path d="M68.8 32.3049C67.0327 32.6488 65.6 34.3888 65.6 36.1912V42.7183L59.2 43.9637C57.4327 44.3077 56 46.0476 56 47.85V54.3771C56 56.1796 57.4327 57.3619 59.2 57.018L65.6 55.7726V62.2997C65.6 64.1021 67.0327 65.2844 68.8 64.9405L75.2 63.6951C76.9673 63.3512 78.4 61.6112 78.4 59.8088V53.2817L84.8 52.0363C86.5673 51.6923 88 49.9524 88 48.15V41.6229C88 39.8204 86.5673 38.6381 84.8 38.982L78.4 40.2274V33.7003C78.4 31.8979 76.9673 30.7156 75.2 31.0595L68.8 32.3049Z" fill="#FF4773"/>
<path d="M68.8 32.3049C67.0327 32.6488 65.6 34.3888 65.6 36.1912V42.7183L59.2 43.9637C57.4327 44.3077 56 46.0476 56 47.85V54.3771C56 56.1796 57.4327 57.3619 59.2 57.018L65.6 55.7726V62.2997C65.6 64.1021 67.0327 65.2844 68.8 64.9405L75.2 63.6951C76.9673 63.3512 78.4 61.6112 78.4 59.8088V53.2817L84.8 52.0363C86.5673 51.6923 88 49.9524 88 48.15V41.6229C88 39.8204 86.5673 38.6381 84.8 38.982L78.4 40.2274V33.7003C78.4 31.8979 76.9673 30.7156 75.2 31.0595L68.8 32.3049Z" fill="url(#paint2_linear_1245_38296)" fill-opacity="0.3"/>
<path d="M81 6L81 19.4279C81 23.8948 84.5452 26.7592 88.9143 25.8225L106 22L81 6Z" fill="#00BFFF"/>
<defs>
<linearGradient id="paint0_linear_1245_38296" x1="28.7774" y1="118.758" x2="80.133" y2="60.145" gradientUnits="userSpaceOnUse">
<stop stop-color="#107ACA"/>
<stop offset="1" stop-color="#107ACA" stop-opacity="0"/>
</linearGradient>
<linearGradient id="paint1_linear_1245_38296" x1="3.99987" y1="140.652" x2="67.8198" y2="86.9062" gradientUnits="userSpaceOnUse">
<stop stop-color="#FF4773"/>
<stop offset="1" stop-color="#FF4773" stop-opacity="0"/>
</linearGradient>
<linearGradient id="paint2_linear_1245_38296" x1="56.9694" y1="67.5607" x2="66.6877" y2="47.8724" gradientUnits="userSpaceOnUse">
<stop stop-color="#107ACA"/>
<stop offset="1" stop-color="#107ACA" stop-opacity="0"/>
</linearGradient>
</defs>
</svg>
